<?xml version="1.0" encoding="iso-8859-1"?>
<!-- Generator: Adobe Illustrator 19.0.0, SVG Export Plug-In . SVG Version: 6.00 Build 0)  -->
<svg version="1.1" id="Capa_1" xmlns="http://www.w3.org/2000/svg" xmlns:xlink="http://www.w3.org/1999/xlink" x="0px" y="0px"
	 viewBox="0 0 509.08 509.08" style="enable-background:new 0 0 509.08 509.08;" xml:space="preserve">
<g>
	<g>
		<path d="M465.1,213.64l-106.6-85.3c-2.1-2.1-6.4-2.1-10.7-2.1c-4.3,2.1-6.4,4.3-6.4,8.5l-21.3,85.3c0,2.1,0,6.4,2.1,8.5
			c2.1,2.1,4.3,4.3,8.5,4.3h128c4.3,0,8.5-2.1,10.7-6.4C471.5,222.14,469.4,217.94,465.1,213.64z M343.6,211.54l14.9-55.5l70.4,55.5
			H343.6z"/>
	</g>
</g>
<g>
	<g>
		<path d="M486.5,175.24l-89.6-74.7c-12.8-10.7-29.9-17.1-44.8-17.1H138.8c-23.5,0-44.8,12.8-55.5,34.1l-4.3,8.5H10.7
			c-6.4,0-10.7,4.3-10.7,10.7s4.3,10.7,10.7,10.7h57.6L47,190.14H10.7c-6.4,0-10.7,4.3-10.7,10.7s4.3,10.7,10.7,10.7h25.6L15,254.24
			h-4.3c-6.4,0-10.7,4.3-10.7,10.7c0,4.3,2.1,6.4,6.4,8.5c-4.3,8.5-6.4,17.1-6.4,23.5c0,34.1,27.7,61.9,61.9,61.9h2
			c4.2,37.5,36.1,66.7,74.8,66.7s70.5-29.2,74.8-66.7h83.1c2.3,19.4,12.5,36.3,27,47.9c13.3,11.7,30.7,18.9,49.8,18.9
			c39,0,71-29.6,74.9-67.6c8.3-2,16.1-7.8,21.1-16.2l21.3-40.5c10.7-23.5,16.5-46.8,18.2-72.4
			C510.3,207.54,503.6,190.24,486.5,175.24z M138.8,403.54c-29.5,0-53.3-23.9-53.3-53.3c0-29.5,23.9-53.3,53.3-53.3
			c29.5,0,53.3,23.9,53.3,53.3C192.1,379.64,168.2,403.54,138.8,403.54z M373.4,403.54c-29.5,0-53.3-23.9-53.3-53.3
			c0-29.5,23.9-53.3,53.3-53.3c29.5,0,53.3,23.9,53.3,53.3C426.8,379.64,402.9,403.54,373.4,403.54z M489,228.64
			c-2.1,21.7-8.5,46.9-19.2,64c0,0-14.9,31.6-22.3,40.5c-0.1,0.2-0.4,0.4-0.6,0.6c-7.5-33.6-37.5-58.8-73.4-58.8
			c-37.9,0-69.3,28.1-74.5,64.6h-85.5c-3.1-26.3-20.7-48.1-44-58.1c-9.4-4.2-19.7-6.5-30.6-6.5c-37.9,0-69.3,28.1-74.5,64.5
			c-22.4-1-38.6-19.7-38.6-40.5c0-6.4,2.1-12.8,4.3-19.2l2.1-4.3h46.9c6.4,0,10.7-4.3,10.7-10.7c0-6.4-4.3-10.7-10.7-10.7H42.8
			l21.3-42.7h57.6c6.4,0,10.7-4.3,10.7-10.7c0-6.4-4.3-10.7-10.7-10.7H74.8l21.3-42.7h68.3c6.4,0,10.7-4.3,10.7-10.7
			c0-6.4-4.3-10.7-10.7-10.7h-57.6c6.4-12.8,21.3-21.3,36.3-21.3h213.3c10.7,0,17.5,4.3,26,10.7l89.6,74.7
			C482.6,198.74,490.5,213.74,489,228.64z"/>
	</g>
</g>
<g>
</g>
<g>
</g>
<g>
</g>
<g>
</g>
<g>
</g>
<g>
</g>
<g>
</g>
<g>
</g>
<g>
</g>
<g>
</g>
<g>
</g>
<g>
</g>
<g>
</g>
<g>
</g>
<g>
</g>
</svg>
