<?xml version="1.0" encoding="iso-8859-1"?>
<!-- Generator: Adobe Illustrator 19.0.0, SVG Export Plug-In . SVG Version: 6.00 Build 0)  -->
<svg version="1.1" id="Capa_1" xmlns="http://www.w3.org/2000/svg" xmlns:xlink="http://www.w3.org/1999/xlink" x="0px" y="0px"
	 viewBox="0 0 512 512" style="enable-background:new 0 0 512 512;" xml:space="preserve">
<g>
	<g>
		<path d="M501.333,128H480c-6.4,0-10.667,4.267-10.667,10.667S473.6,149.333,480,149.333h10.667v277.333H85.333V416
			c0-6.4-4.267-10.667-10.667-10.667C68.267,405.333,64,409.6,64,416v21.333c0,6.4,4.267,10.667,10.667,10.667h426.667
			c6.4,0,10.667-4.267,10.667-10.667V138.667C512,132.267,507.733,128,501.333,128z"/>
	</g>
</g>
<g>
	<g>
		<path d="M394.667,106.667H352c-6.4,0-10.667,4.267-10.667,10.667c0,6.4,4.267,10.667,10.667,10.667h42.667
			c6.4,0,10.667-4.267,10.667-10.667C405.333,110.934,401.067,106.667,394.667,106.667z"/>
	</g>
</g>
<g>
	<g>
		<path d="M96,320H53.333c-6.4,0-10.667,4.267-10.667,10.667c0,6.4,4.267,10.667,10.667,10.667H96c6.4,0,10.667-4.267,10.667-10.667
			C106.667,324.267,102.4,320,96,320z"/>
	</g>
</g>
<g>
	<g>
		<path d="M437.333,64H10.667C4.267,64,0,68.267,0,74.667v298.667C0,379.733,4.267,384,10.667,384h426.667
			c6.4,0,10.667-4.267,10.667-10.667V74.667C448,68.267,443.733,64,437.333,64z M426.667,362.667H21.333V85.333h405.333V362.667z"/>
	</g>
</g>
<g>
	<g>
		<path d="M234.667,215.467V172.8C247.467,174.934,256,183.467,256,192c0,6.4,6.4,10.667,10.667,10.667
			c6.4,0,10.667-6.4,10.667-10.667c-2.133-19.2-19.2-36.267-42.667-38.4v-10.667c0-6.4-4.267-10.667-10.667-10.667
			s-10.667,4.267-10.667,10.667V153.6c-23.467,4.267-42.667,21.333-42.667,42.667c0,14.934,14.933,29.867,42.667,36.267v42.667
			C200.533,273.066,192,264.533,192,256c0-6.4-6.4-10.667-10.667-10.667c-6.4,0-10.667,6.4-10.667,10.667
			c2.133,19.2,19.2,36.267,42.667,38.4v10.667c0,6.4,4.267,10.667,10.667,10.667s10.667-4.267,10.667-10.667v-6.4
			c23.467-4.267,42.667-21.333,42.667-42.667C277.333,236.8,262.4,221.867,234.667,215.467z M213.333,211.2
			C198.4,206.934,192,200.533,192,192s8.533-17.066,21.333-19.2V211.2z M234.667,275.2v-38.4C249.6,241.067,256,247.467,256,256
			S247.467,273.066,234.667,275.2z"/>
	</g>
</g>
<g>
</g>
<g>
</g>
<g>
</g>
<g>
</g>
<g>
</g>
<g>
</g>
<g>
</g>
<g>
</g>
<g>
</g>
<g>
</g>
<g>
</g>
<g>
</g>
<g>
</g>
<g>
</g>
<g>
</g>
</svg>
