<?xml version="1.0" encoding="iso-8859-1"?>
<!-- Generator: Adobe Illustrator 19.0.0, SVG Export Plug-In . SVG Version: 6.00 Build 0)  -->
<svg version="1.1" id="Capa_1" xmlns="http://www.w3.org/2000/svg" xmlns:xlink="http://www.w3.org/1999/xlink" x="0px" y="0px"
	 viewBox="0 0 512 512" style="enable-background:new 0 0 512 512;" xml:space="preserve">
<g>
	<g>
		<path d="M416,64h-74.667V53.333C341.333,23.467,317.867,0,288,0h-64c-29.867,0-53.333,23.467-53.333,53.333V64H96
			c-6.4,0-10.667,4.267-10.667,10.667V480c0,17.066,14.933,32,32,32h277.333c17.067,0,32-14.934,32-32V74.667
			C426.667,68.267,422.4,64,416,64z M192,53.333c0-17.066,14.933-32,32-32h64c17.067,0,32,14.934,32,32V64H192V53.333z M405.333,480
			c0,6.4-4.267,10.667-10.667,10.667H117.333c-6.4,0-10.667-4.267-10.667-10.667v-53.333h298.667V480z M405.333,405.333H106.667
			v-320h64V160c0,6.4,4.267,10.667,10.667,10.667c6.4,0,10.667-4.267,10.667-10.667V85.333h128V160
			c0,6.4,4.267,10.667,10.667,10.667c6.4,0,10.667-4.267,10.667-10.667V85.333h64V405.333z"/>
	</g>
</g>
<g>
</g>
<g>
</g>
<g>
</g>
<g>
</g>
<g>
</g>
<g>
</g>
<g>
</g>
<g>
</g>
<g>
</g>
<g>
</g>
<g>
</g>
<g>
</g>
<g>
</g>
<g>
</g>
<g>
</g>
</svg>
