<?xml version="1.0" encoding="iso-8859-1"?>
<!-- Generator: Adobe Illustrator 19.0.0, SVG Export Plug-In . SVG Version: 6.00 Build 0)  -->
<svg version="1.1" id="Capa_1" xmlns="http://www.w3.org/2000/svg" xmlns:xlink="http://www.w3.org/1999/xlink" x="0px" y="0px"
	 viewBox="0 0 490.667 490.667" style="enable-background:new 0 0 490.667 490.667;" xml:space="preserve">
<g>
	<g>
		<path d="M288,298.667h-32v-32c0-6.4-4.267-10.667-10.667-10.667s-10.667,4.267-10.667,10.667v32h-32
			c-6.4,0-10.667,4.267-10.667,10.667c0,6.4,4.267,10.667,10.667,10.667h32v32c0,6.4,4.267,10.667,10.667,10.667S256,358.4,256,352
			v-32h32c6.4,0,10.667-4.267,10.667-10.667C298.667,302.934,294.4,298.667,288,298.667z"/>
	</g>
</g>
<g>
	<g>
		<path d="M309.333,0h-128c-40.533,0-74.667,34.133-74.667,74.667v128c0,6.4,4.267,10.667,10.667,10.667S128,209.066,128,202.667
			v-128c0-29.867,23.467-53.333,53.333-53.333h128c29.867,0,53.333,23.467,53.333,53.333v128c0,6.4,4.267,10.667,10.667,10.667
			S384,209.066,384,202.667v-128C384,34.133,349.867,0,309.333,0z"/>
	</g>
</g>
<g>
	<g>
		<path d="M480,128h-64c-6.4,0-10.667,4.267-10.667,10.667c0,6.4,4.267,10.667,10.667,10.667h53.333v320h-448v-320h53.333
			c6.4,0,10.667-4.267,10.667-10.667c0-6.4-4.267-10.667-10.667-10.667h-64C4.267,128,0,132.267,0,138.667V480
			c0,6.4,4.267,10.667,10.667,10.667H480c6.4,0,10.667-4.267,10.667-10.667V138.667C490.667,132.267,486.4,128,480,128z"/>
	</g>
</g>
<g>
	<g>
		<path d="M330.667,128H160c-6.4,0-10.667,4.267-10.667,10.667c0,6.4,4.267,10.667,10.667,10.667h170.667
			c6.4,0,10.667-4.267,10.667-10.667C341.333,132.267,337.067,128,330.667,128z"/>
	</g>
</g>
<g>
	<g>
		<path d="M245.333,192C181.333,192,128,245.333,128,309.333s53.333,117.333,117.333,117.333s117.333-53.333,117.333-117.333
			S309.333,192,245.333,192z M245.333,405.333c-53.333,0-96-42.667-96-96c0-53.333,42.667-96,96-96s96,42.667,96,96
			C341.333,362.667,298.667,405.333,245.333,405.333z"/>
	</g>
</g>
<g>
</g>
<g>
</g>
<g>
</g>
<g>
</g>
<g>
</g>
<g>
</g>
<g>
</g>
<g>
</g>
<g>
</g>
<g>
</g>
<g>
</g>
<g>
</g>
<g>
</g>
<g>
</g>
<g>
</g>
</svg>
